<svg xmlns="http://www.w3.org/2000/svg" viewBox="0 0 231 74" width="231" height="74" role="img" aria-label="iBookit">
  <g transform="translate(0.25 9) scale(0.58333)">
    <path fill="#5560A8" fill-rule="evenodd" d="M29 12H48C56.3 12 63 18.3 63 26C63 31 61.5 34 58 37C63 40 71 46 71 57V66C71 76 65 84 58 84H29C27.9 84 27 83.1 27 82V14C27 12.9 27.9 12 29 12ZM43 23H48A4 4 0 0 1 52 27V32A4 4 0 0 1 48 36H43A4 4 0 0 1 39 32V27A4 4 0 0 1 43 23ZM43 47H56A4 4 0 0 1 60 51V70.5Q60 73 58.28 71.2L51.31 63.89Q49.5 62 47.69 63.89L40.72 71.2Q39 73 39 70.5V51A4 4 0 0 1 43 47Z"/>
  </g>
  <text x="60" y="58" fill="#201B14" font-family="Hanken Grotesk, Arial, sans-serif" font-weight="600" font-size="48" letter-spacing="-0.96">iBookit</text>
</svg>
